Coordinates
version=1
nRows=7
nColumns=40
inDegrees=yes

Units are S.I. units (second, meters, Newtons, ...)
Angles are in degrees.

endheader
time	pelvis_tilt	pelvis_list	pelvis_rotation	pelvis_tx	pelvis_ty	pelvis_tz	hip_flexion_r	hip_adduction_r	hip_rotation_r	knee_angle_r	knee_angle_r_beta	ankle_angle_r	subtalar_angle_r	mtp_angle_r	hip_flexion_l	hip_adduction_l	hip_rotation_l	knee_angle_l	knee_angle_l_beta	ankle_angle_l	subtalar_angle_l	mtp_angle_l	lumbar_extension	lumbar_bending	lumbar_rotation	arm_flex_r	arm_add_r	arm_rot_r	elbow_flex_r	pro_sup_r	wrist_flex_r	wrist_dev_r	arm_flex_l	arm_add_l	arm_rot_l	elbow_flex_l	pro_sup_l	wrist_flex_l	wrist_dev_l
      2.38000000	     -3.61194042	     -3.92729848	      0.17477298	      1.07631449	      0.92245995	      0.40682632	     20.14069483	     -7.55147690	     -4.05116055	     60.01719362	     60.01719362	      2.81544370	    -14.70903183	     -1.77933424	     16.38879703	     -0.69621677	     -0.92205543	     28.34932966	     28.34932966	     18.11307317	    -16.17222021	      6.38087765	     -9.36596432	      5.69195358	      2.07692928	      6.18733984	    -13.23230377	     -9.48611117	     25.72516062	     46.78420721	      0.00000000	      0.00000000	     20.41231757	    -14.89394330	     15.65312754	     38.30067534	     45.80812105	      0.00000000	      0.00000000
      2.40257143	     -3.40641316	     -4.05823305	     -0.38102901	      1.07563162	      0.92274065	      0.40626605	     21.55553537	     -7.33904410	     -3.51793512	     60.45932474	     60.45932474	      2.99859813	    -15.09156664	     -1.18720881	     15.77458826	     -0.87220318	     -1.34557090	     28.25118531	     28.25118531	     18.41857336	    -16.25306461	      6.38230140	     -9.61136630	      6.01020542	      2.24390660	      2.98723571	    -13.11792315	     -9.64668368	     24.33681794	     46.82675236	      0.00000000	      0.00000000	     22.50538610	    -15.21621239	     14.94710010	     40.05857141	     45.92528053	      0.00000000	      0.00000000
      2.42514286	     -3.26798878	     -4.18939067	     -1.01464011	      1.07484669	      0.92326503	      0.40618020	     22.86510023	     -7.07588471	     -3.13209686	     60.01511732	     60.01511732	      3.55610568	    -15.30153531	     -0.75175769	     15.13133622	     -1.08561179	     -1.86131315	     27.97408791	     27.97408791	     18.67547186	    -16.24918625	      6.41024582	     -9.81907794	      6.30177606	      2.28110368	      0.04827290	    -12.92460398	     -9.94701916	     23.37968481	     46.86545811	      0.00000000	      0.00000000	     24.43599865	    -15.72258392	     14.03621532	     41.99679732	     46.06082606	      0.00000000	      0.00000000
      2.44771429	     -3.22127216	     -4.29637986	     -1.76101317	      1.07388355	      0.92405212	      0.40655282	     24.09664011	     -6.77744015	     -2.86034769	     58.65626972	     58.65626972	      4.18368702	    -15.36524386	     -0.76817890	     14.46855725	     -1.30696130	     -2.48286658	     27.46939412	     27.46939412	     18.80251679	    -16.21417863	      6.46279104	     -9.99720998	      6.53854942	      2.27568698	     -2.60943614	    -12.72213668	    -10.24941202	     22.73451280	     46.89392534	      0.00000000	      0.00000000	     26.26384968	    -16.34447190	     13.05920875	     43.91810872	     46.19629786	      0.00000000	      0.00000000
      2.47028571	     -3.32716020	     -4.41826759	     -2.58355259	      1.07285476	      0.92489206	      0.40738061	     25.18359017	     -6.43522011	     -2.82298098	     56.25743960	     56.25743960	      4.49843247	    -15.34889371	     -2.32496820	     13.89476389	     -1.58451392	     -3.20171012	     26.83271717	     26.83271717	     18.76815549	    -16.14782083	      6.22660165	    -10.07062919	      6.78388378	      2.00805688	     -5.21017421	    -12.47070391	    -11.31928824	     23.51526989	     46.92577312	      0.00000000	      0.00000000	     27.34269702	    -17.18684249	     10.74650290	     47.12541157	     46.46281589	      0.00000000	      0.00000000
      2.49285714	     -3.46757510	     -4.53290916	     -3.48656957	      1.07177565	      0.92604382	      0.40867060	     26.04626673	     -6.00677250	     -2.90871171	     53.01851646	     53.01851646	      5.19815887	    -14.77354353	     -2.64426941	     13.21650259	     -1.86680988	     -3.97528806	     25.95221410	     25.95221410	     18.76174463	    -16.02893120	      6.35384481	    -10.05013828	      6.96956779	      1.88632797	     -7.05624813	    -12.31066952	    -11.39992899	     22.94458620	     46.93851315	      0.00000000	      0.00000000	     29.16099438	    -18.03485533	     10.09408652	     48.21609579	     46.55024276	      0.00000000	      0.00000000
      2.51542857	     -3.67466203	     -4.52274909	     -4.50555325	      1.07066987	      0.92712367	      0.41043478	     26.64780234	     -5.64658908	     -3.11067909	     48.86934682	     48.86934682	      5.14046646	    -13.92165445	     -4.90987194	     12.51505432	     -2.06283128	     -4.97075028	     24.89700425	     24.89700425	     18.52161933	    -15.85076913	      6.00214817	    -10.09951038	      6.96629201	      2.29737374	     -9.24678368	    -12.09771971	    -11.79116400	     23.45845993	     46.92125503	      0.00000000	      0.00000000	     30.68297751	    -18.55410912	      8.51803691	     50.79618175	     46.73263344	      0.00000000	      0.00000000
